<svg id="visual" viewBox="0 0 900 600" width="900" height="600" xmlns="http://www.w3.org/2000/svg" xmlns:xlink="http://www.w3.org/1999/xlink" version="1.1"><rect x="0" y="0" width="900" height="600" fill="#ffffff"></rect><defs><linearGradient id="grad1_0" x1="33.3%" y1="100%" x2="100%" y2="0%"><stop offset="20%" stop-color="#6107cd" stop-opacity="1"></stop><stop offset="80%" stop-color="#6107cd" stop-opacity="1"></stop></linearGradient></defs><defs><linearGradient id="grad1_1" x1="33.3%" y1="100%" x2="100%" y2="0%"><stop offset="20%" stop-color="#6107cd" stop-opacity="1"></stop><stop offset="80%" stop-color="#9254db" stop-opacity="1"></stop></linearGradient></defs><defs><linearGradient id="grad1_2" x1="33.3%" y1="100%" x2="100%" y2="0%"><stop offset="20%" stop-color="#ba8de8" stop-opacity="1"></stop><stop offset="80%" stop-color="#9254db" stop-opacity="1"></stop></linearGradient></defs><defs><linearGradient id="grad1_3" x1="33.3%" y1="100%" x2="100%" y2="0%"><stop offset="20%" stop-color="#ba8de8" stop-opacity="1"></stop><stop offset="80%" stop-color="#dec5f4" stop-opacity="1"></stop></linearGradient></defs><defs><linearGradient id="grad1_4" x1="33.3%" y1="100%" x2="100%" y2="0%"><stop offset="20%" stop-color="#ffffff" stop-opacity="1"></stop><stop offset="80%" stop-color="#dec5f4" stop-opacity="1"></stop></linearGradient></defs><defs><linearGradient id="grad2_0" x1="0%" y1="100%" x2="66.7%" y2="0%"><stop offset="20%" stop-color="#6107cd" stop-opacity="1"></stop><stop offset="80%" stop-color="#6107cd" stop-opacity="1"></stop></linearGradient></defs><defs><linearGradient id="grad2_1" x1="0%" y1="100%" x2="66.7%" y2="0%"><stop offset="20%" stop-color="#9254db" stop-opacity="1"></stop><stop offset="80%" stop-color="#6107cd" stop-opacity="1"></stop></linearGradient></defs><defs><linearGradient id="grad2_2" x1="0%" y1="100%" x2="66.7%" y2="0%"><stop offset="20%" stop-color="#9254db" stop-opacity="1"></stop><stop offset="80%" stop-color="#ba8de8" stop-opacity="1"></stop></linearGradient></defs><defs><linearGradient id="grad2_3" x1="0%" y1="100%" x2="66.7%" y2="0%"><stop offset="20%" stop-color="#dec5f4" stop-opacity="1"></stop><stop offset="80%" stop-color="#ba8de8" stop-opacity="1"></stop></linearGradient></defs><defs><linearGradient id="grad2_4" x1="0%" y1="100%" x2="66.7%" y2="0%"><stop offset="20%" stop-color="#dec5f4" stop-opacity="1"></stop><stop offset="80%" stop-color="#ffffff" stop-opacity="1"></stop></linearGradient></defs><g transform="translate(900, 600)"><path d="M-317 0C-315.1 -33 -313.3 -66 -303.4 -98.6C-293.5 -131.2 -275.6 -163.4 -249.2 -181C-222.7 -198.7 -187.7 -201.8 -163.4 -224.9C-139.2 -248 -125.7 -290.9 -100.3 -308.6C-74.8 -326.3 -37.4 -318.6 0 -311L0 0Z" fill="#efe2fa"></path><path d="M-253.6 0C-252.1 -26.4 -250.6 -52.8 -242.7 -78.9C-234.8 -104.9 -220.5 -130.7 -199.3 -144.8C-178.2 -159 -150.1 -161.5 -130.7 -179.9C-111.3 -198.4 -100.6 -232.8 -80.2 -246.9C-59.9 -261 -29.9 -254.9 0 -248.8L0 0Z" fill="#cda9ee"></path><path d="M-190.2 0C-189.1 -19.8 -188 -39.6 -182 -59.1C-176.1 -78.7 -165.4 -98 -149.5 -108.6C-133.6 -119.2 -112.6 -121.1 -98 -134.9C-83.5 -148.8 -75.4 -174.6 -60.2 -185.2C-44.9 -195.8 -22.5 -191.2 0 -186.6L0 0Z" fill="#a771e2"></path><path d="M-126.8 0C-126.1 -13.2 -125.3 -26.4 -121.4 -39.4C-117.4 -52.5 -110.3 -65.3 -99.7 -72.4C-89.1 -79.5 -75.1 -80.7 -65.4 -90C-55.7 -99.2 -50.3 -116.4 -40.1 -123.4C-29.9 -130.5 -15 -127.5 0 -124.4L0 0Z" fill="#7b35d4"></path><path d="M-63.4 0C-63 -6.6 -62.7 -13.2 -60.7 -19.7C-58.7 -26.2 -55.1 -32.7 -49.8 -36.2C-44.5 -39.7 -37.5 -40.4 -32.7 -45C-27.8 -49.6 -25.1 -58.2 -20.1 -61.7C-15 -65.3 -7.5 -63.7 0 -62.2L0 0Z" fill="#6107cd"></path></g><g transform="translate(0, 0)"><path d="M313 0C292.2 27.1 271.3 54.1 260.6 84.7C249.9 115.2 249.2 149.2 231.4 168.1C213.5 187 178.5 190.7 155.8 214.4C133 238.1 122.5 281.7 98.6 303.4C74.7 325.1 37.3 324.8 0 324.5L0 0Z" fill="#efe2fa"></path><path d="M250.4 0C233.7 21.7 217.1 43.3 208.5 67.7C199.9 92.2 199.4 119.4 185.1 134.5C170.8 149.6 142.8 152.6 124.6 171.5C106.4 190.5 98 225.4 78.9 242.7C59.7 260.1 29.9 259.8 0 259.6L0 0Z" fill="#cda9ee"></path><path d="M187.8 0C175.3 16.2 162.8 32.5 156.4 50.8C149.9 69.1 149.5 89.5 138.8 100.9C128.1 112.2 107.1 114.4 93.5 128.6C79.8 142.8 73.5 169 59.1 182C44.8 195 22.4 194.9 0 194.7L0 0Z" fill="#a771e2"></path><path d="M125.2 0C116.9 10.8 108.5 21.7 104.2 33.9C99.9 46.1 99.7 59.7 92.6 67.2C85.4 74.8 71.4 76.3 62.3 85.8C53.2 95.2 49 112.7 39.4 121.4C29.9 130 14.9 129.9 0 129.8L0 0Z" fill="#7b35d4"></path><path d="M62.6 0C58.4 5.4 54.3 10.8 52.1 16.9C50 23 49.8 29.8 46.3 33.6C42.7 37.4 35.7 38.1 31.2 42.9C26.6 47.6 24.5 56.3 19.7 60.7C14.9 65 7.5 65 0 64.9L0 0Z" fill="#6107cd"></path></g></svg>